<svg xmlns="http://www.w3.org/2000/svg" viewBox="0 0 1010 289.47"><path d="M1064.87,450.05c-121.42,2.61-235,54.83-356.42,61.36-35.25,1.31-70.5-2.61-97.92-18.28C660.14,484,707.15,467,742.4,434.38c37.86-33.94,41.77-96.61,18.27-141-22.19-41.77-78.33-43.08-117.5-32.64C550.48,282.94,487.81,393.91,540,472.24c-57.44,3.92-324.89-20-381-17.39-11.75,1.31-11.75,18.28,1.31,18.28,57.44,3.92,336.64,29.14,404.53,25.22,3.91,2.62,7.83,6.53,11.75,9.14,138.39,96.61,340.75-24.8,489.58-28.72C1083.15,477.46,1083.15,448.74,1064.87,450.05ZM551.78,418.71c-14.36-53.52,32.64-99.22,75.72-121.41S732,275.1,746.31,331.24c17,65.28-39.17,104.44-92.7,121.42-24.8,7.83-48.3,13-73.11,15.66C566.14,455.27,557,439.6,551.78,418.71Z" transform="translate(-150.35 -255.27)"/><path d="M1153.65,451.35c-18.28-11.75-35.25-23.5-52.22-35.25-14.37-10.44-28.73-22.19-45.7-26.11-13-3.91-26.11,15.67-14.36,24.81,14.36,10.44,30,19.58,44.39,28.72,10.45,6.53,20.89,14.36,30,20.89-10.45,5.22-20.89,9.14-31.34,14.36-7.83,3.92-17,7.83-24.8,11.75a15.75,15.75,0,0,0-6.53,6.53c-3.92,5.22-1.31,2.61,0,1.3-5.22,3.92-5.22,17,3.92,15.67h0c2.61,1.3,5.22,1.3,9.13,1.3a253.17,253.17,0,0,0,28.73-10.44c19.58-7.84,39.16-15.67,57.44-26.11C1162.79,470.94,1162.79,456.57,1153.65,451.35Z" transform="translate(-150.35 -255.27)"/></svg>